<svg width="31" height="32" viewBox="0 0 31 32" fill="none" xmlns="http://www.w3.org/2000/svg">
<path d="M2.87513 3.04125C0.517627 5.49 1.00013 8.09125 1.00013 15.9938C1.00013 22.5563 -0.144873 29.135 5.84763 30.6838C7.71888 31.165 24.2989 31.165 26.1676 30.6813C28.6626 30.0375 30.6926 28.0138 30.9701 24.485C31.0089 23.9925 31.0089 8.00375 30.9689 7.50125C30.6739 3.7425 28.3601 1.57625 25.3114 1.1375C24.6126 1.03625 24.4726 1.00625 20.8876 0.999997C8.17138 1.00625 5.38388 0.439997 2.87513 3.04125Z" fill="url(#paint0_linear_4528_1096)"/>
<path d="M15.9975 4.92378C11.4588 4.92378 7.14876 4.52003 5.50251 8.74503C4.82251 10.49 4.92126 12.7563 4.92126 16.0013C4.92126 18.8488 4.83001 21.525 5.50251 23.2563C7.14501 27.4838 11.49 27.0788 15.995 27.0788C20.3413 27.0788 24.8225 27.5313 26.4888 23.2563C27.17 21.4938 27.07 19.2613 27.07 16.0013C27.07 11.6738 27.3088 8.88003 25.21 6.78253C23.085 4.65753 20.2113 4.92378 15.9925 4.92378H15.9975ZM15.005 6.92003C24.4725 6.90503 25.6775 5.85253 25.0125 20.4738C24.7763 25.645 20.8388 25.0775 15.9988 25.0775C7.17376 25.0775 6.92001 24.825 6.92001 15.9963C6.92001 7.06503 7.62001 6.92503 15.005 6.91753V6.92003ZM21.91 8.75878C21.1763 8.75878 20.5813 9.35378 20.5813 10.0875C20.5813 10.8213 21.1763 11.4163 21.91 11.4163C22.6438 11.4163 23.2388 10.8213 23.2388 10.0875C23.2388 9.35378 22.6438 8.75878 21.91 8.75878ZM15.9975 10.3125C12.8563 10.3125 10.31 12.86 10.31 16.0013C10.31 19.1425 12.8563 21.6888 15.9975 21.6888C19.1388 21.6888 21.6838 19.1425 21.6838 16.0013C21.6838 12.86 19.1388 10.3125 15.9975 10.3125ZM15.9975 12.3088C20.8788 12.3088 20.885 19.6938 15.9975 19.6938C11.1175 19.6938 11.11 12.3088 15.9975 12.3088Z" fill="white"/>
<defs>
<linearGradient id="paint0_linear_4528_1096" x1="2.93265" y1="29.0839" x2="30.8145" y2="4.95248" gradientUnits="userSpaceOnUse">
<stop stop-color="#FFDD55"/>
<stop offset="0.5" stop-color="#FF543E"/>
<stop offset="1" stop-color="#C837AB"/>
</linearGradient>
</defs>
</svg>
