<svg width="30" height="26" viewBox="0 0 30 26" fill="none" xmlns="http://www.w3.org/2000/svg">
<path d="M29.8279 3.68197C29.6284 3.46387 29.3073 3.40719 29.0453 3.54372C28.7759 3.66613 28.4972 3.76689 28.2118 3.84503C28.6569 3.27543 28.993 2.62849 29.2031 1.93672C29.2956 1.58864 29.0884 1.23145 28.7403 1.13894C28.5544 1.08954 28.3562 1.12469 28.1987 1.23499C27.2071 1.77164 26.153 2.18392 25.0604 2.46242C22.8112 0.339443 19.385 0.0748194 16.8364 1.82722C14.8732 3.15462 13.7923 5.44879 14.0189 7.80772C9.76325 7.44509 5.84776 5.33623 3.20311 1.9824C3.06725 1.81805 2.86169 1.72756 2.64873 1.7385C2.43278 1.75146 2.23737 1.87069 2.12701 2.05675C1.22944 3.52398 0.9694 5.29386 1.407 6.95723C1.63139 7.81188 2.01603 8.61615 2.54051 9.32729C2.30426 9.21161 2.08195 9.06939 1.87791 8.90339C1.59819 8.67649 1.18749 8.71929 0.960535 8.99902C0.866376 9.11513 0.814894 9.26004 0.814833 9.40953C0.853597 11.8226 2.17867 14.0311 4.28967 15.2009C4.00487 15.1659 3.72374 15.1057 3.44964 15.0209C3.10473 14.9172 2.741 15.1126 2.63724 15.4575C2.59199 15.608 2.60257 15.7698 2.66702 15.9131C3.58323 17.9655 5.41493 19.4645 7.60798 19.9566C5.51857 21.1355 3.11262 21.6308 0.727461 21.3732C0.418203 21.3337 0.125209 21.5217 0.0322118 21.8193C-0.0636593 22.1145 0.0618046 22.4364 0.332237 22.5889C3.2527 24.3241 6.57499 25.2681 9.9715 25.328C13.23 25.3161 16.4125 24.3429 19.1203 22.5302C24.2896 19.0997 27.5113 12.9404 27.0627 7.4295C28.1679 6.61135 29.1267 5.61205 29.8984 4.47382C30.057 4.22436 30.0281 3.89945 29.8279 3.68197Z" fill="#03A9F4"/>
</svg>
